<?xml version="1.0" standalone="no"?>
<!DOCTYPE svg PUBLIC "-//W3C//DTD SVG 1.1//EN" "http://www.w3.org/Graphics/SVG/1.1/DTD/svg11.dtd">
<svg width="100%" height="100%" viewBox="0 0 165 40" version="1.1" xmlns="http://www.w3.org/2000/svg" xmlns:xlink="http://www.w3.org/1999/xlink" xml:space="preserve" style="fill-rule:evenodd;clip-rule:evenodd;stroke-linejoin:round;stroke-miterlimit:1.41421;">
    <g>
        <path d="M164.105,35.268C164.105,37.384 162.391,39.098 160.271,39.098L4.729,39.098C2.61,39.098 0.89,37.384 0.89,35.268L0.89,4.725C0.89,2.61 2.61,0.891 4.729,0.891L160.271,0.891C162.392,0.891 164.105,2.61 164.105,4.725L164.105,35.268Z" style="fill:black;fill-rule:nonzero;"/>
        <g>
            <path d="M30.497,19.763C30.467,16.54 33.192,14.971 33.316,14.899C31.773,12.695 29.381,12.393 28.542,12.37C26.532,12.164 24.584,13.548 23.561,13.548C22.518,13.548 20.941,12.391 19.244,12.426C17.059,12.459 15.014,13.697 13.892,15.621C11.578,19.544 13.304,25.311 15.52,28.48C16.629,30.035 17.925,31.767 19.621,31.706C21.281,31.64 21.9,30.671 23.904,30.671C25.888,30.671 26.47,31.706 28.2,31.667C29.98,31.64 31.103,30.108 32.173,28.54C33.455,26.76 33.969,25.008 33.99,24.917C33.948,24.902 30.532,23.627 30.497,19.763Z" style="fill:white;fill-rule:nonzero;"/>
            <path d="M27.229,10.285C28.121,9.191 28.731,7.705 28.562,6.196C27.27,6.251 25.654,7.07 24.724,8.14C23.901,9.081 23.166,10.626 23.356,12.078C24.807,12.184 26.297,11.361 27.229,10.285Z" style="fill:white;fill-rule:nonzero;"/>
        </g>
        <g>
            <path d="M55.653,31.496L53.693,31.496L53.431,26.232C53.306,23.855 53.251,22.087 53.263,20.931L53.207,20.931C52.809,22.412 52.317,23.998 51.732,25.691L49.772,31.384L48.241,31.384L46.449,25.784C45.914,24.091 45.478,22.473 45.142,20.93L45.104,20.93C45.042,22.821 44.967,24.62 44.88,26.325L44.581,31.495L42.696,31.495L43.536,18.913L46.131,18.913L47.942,24.364C48.39,25.708 48.782,27.153 49.118,28.696L49.174,28.696C49.572,27.091 49.995,25.647 50.443,24.364L52.329,18.913L54.924,18.913L55.653,31.496Z" style="fill:white;fill-rule:nonzero;"/>
            <path d="M64.483,31.496L62.672,31.496L62.523,30.451L62.467,30.451C61.844,31.285 60.961,31.701 59.816,31.701C58.957,31.701 58.267,31.428 57.744,30.881C57.271,30.383 57.035,29.768 57.035,29.033C57.035,27.926 57.498,27.078 58.426,26.494C59.353,25.908 60.656,25.623 62.337,25.635L62.337,25.467C62.337,24.272 61.71,23.676 60.456,23.676C59.561,23.676 58.773,23.899 58.09,24.348L57.679,23.022C58.524,22.499 59.562,22.239 60.792,22.239C63.165,22.239 64.352,23.489 64.352,25.991L64.352,29.333C64.352,30.24 64.396,30.961 64.483,31.496ZM62.392,28.379L62.392,26.979C60.164,26.942 59.051,27.551 59.051,28.809C59.051,29.282 59.18,29.637 59.441,29.873C59.701,30.109 60.028,30.227 60.424,30.227C60.87,30.227 61.281,30.088 61.659,29.807C62.036,29.528 62.268,29.17 62.355,28.735C62.379,28.635 62.392,28.516 62.392,28.379Z" style="fill:white;fill-rule:nonzero;"/>
            <path d="M72.977,22.666L72.585,24.197C72.075,23.949 71.49,23.824 70.83,23.824C69.946,23.824 69.247,24.119 68.73,24.711C68.213,25.303 67.956,26.053 67.956,26.961C67.956,27.918 68.227,28.678 68.768,29.238C69.309,29.797 69.997,30.078 70.83,30.078C71.452,30.078 72.062,29.953 72.66,29.705L72.94,31.217C72.28,31.528 71.447,31.684 70.439,31.684C69.058,31.684 67.957,31.264 67.135,30.424C66.313,29.584 65.903,28.461 65.903,27.055C65.903,25.649 66.345,24.494 67.229,23.592C68.112,22.69 69.301,22.238 70.794,22.238C71.639,22.238 72.367,22.381 72.977,22.666Z" style="fill:white;fill-rule:nonzero;"/>
            <path d="M87.872,31.496L85.726,31.496L84.549,27.801L80.462,27.801L79.342,31.496L77.25,31.496L81.301,18.914L83.802,18.914L87.872,31.496ZM84.195,26.252L83.131,22.965C83.019,22.629 82.807,21.84 82.496,20.595L82.458,20.595C82.333,21.131 82.134,21.92 81.861,22.965L80.816,26.252L84.195,26.252Z" style="fill:white;fill-rule:nonzero;"/>
            <path d="M98.287,26.848C98.287,28.393 97.871,29.612 97.037,30.508C96.291,31.305 95.363,31.701 94.256,31.701C93.061,31.701 92.203,31.273 91.68,30.414L91.643,30.414L91.643,35.193L89.627,35.193L89.627,25.41C89.627,24.439 89.602,23.445 89.551,22.424L91.324,22.424L91.437,23.862L91.474,23.862C92.146,22.78 93.165,22.239 94.535,22.239C95.605,22.239 96.498,22.661 97.215,23.509C97.93,24.354 98.287,25.467 98.287,26.848ZM96.234,26.924C96.234,26.039 96.035,25.313 95.636,24.738C95.2,24.142 94.616,23.843 93.882,23.843C93.384,23.843 92.933,24.007 92.528,24.337C92.123,24.667 91.858,25.099 91.735,25.634C91.673,25.884 91.641,26.089 91.641,26.251L91.641,27.763C91.641,28.423 91.842,28.98 92.248,29.433C92.652,29.888 93.178,30.115 93.824,30.115C94.584,30.115 95.174,29.822 95.597,29.238C96.023,28.652 96.234,27.881 96.234,26.924Z" style="fill:white;fill-rule:nonzero;"/>
            <path d="M108.723,26.848C108.723,28.393 108.305,29.612 107.473,30.508C106.725,31.305 105.799,31.701 104.69,31.701C103.497,31.701 102.637,31.273 102.116,30.414L102.077,30.414L102.077,35.193L100.061,35.193L100.061,25.41C100.061,24.439 100.036,23.445 99.987,22.424L101.76,22.424L101.871,23.862L101.908,23.862C102.58,22.78 103.601,22.239 104.97,22.239C106.04,22.239 106.933,22.661 107.648,23.509C108.365,24.354 108.723,25.467 108.723,26.848ZM106.67,26.924C106.67,26.039 106.471,25.313 106.072,24.738C105.636,24.142 105.051,23.843 104.316,23.843C103.818,23.843 103.367,24.007 102.962,24.337C102.557,24.667 102.294,25.099 102.169,25.634C102.107,25.884 102.075,26.089 102.075,26.251L102.075,27.763C102.075,28.423 102.278,28.98 102.682,29.433C103.086,29.888 103.612,30.115 104.26,30.115C105.018,30.115 105.61,29.822 106.033,29.238C106.457,28.652 106.67,27.881 106.67,26.924Z" style="fill:white;fill-rule:nonzero;"/>
            <path d="M120.389,27.969C120.389,29.039 120.016,29.91 119.272,30.582C118.452,31.316 117.309,31.684 115.844,31.684C114.49,31.684 113.405,31.422 112.584,30.899L113.051,29.219C113.934,29.754 114.906,30.022 115.963,30.022C116.723,30.022 117.315,29.852 117.738,29.508C118.161,29.164 118.373,28.707 118.373,28.133C118.373,27.623 118.199,27.192 117.85,26.844C117.502,26.494 116.924,26.17 116.114,25.871C113.913,25.049 112.811,23.846 112.811,22.262C112.811,21.227 113.196,20.38 113.967,19.72C114.738,19.059 115.766,18.729 117.047,18.729C118.193,18.729 119.145,18.928 119.904,19.327L119.4,20.97C118.689,20.584 117.886,20.391 116.992,20.391C116.281,20.391 115.728,20.566 115.33,20.914C114.994,21.224 114.826,21.605 114.826,22.052C114.826,22.55 115.019,22.96 115.404,23.284C115.74,23.583 116.349,23.907 117.234,24.255C118.316,24.691 119.113,25.2 119.623,25.786C120.135,26.369 120.389,27.098 120.389,27.969Z" style="fill:white;fill-rule:nonzero;"/>
            <path d="M127.053,23.936L124.83,23.936L124.83,28.342C124.83,29.461 125.223,30.022 126.008,30.022C126.367,30.022 126.666,29.991 126.903,29.928L126.96,31.459C126.562,31.609 126.038,31.684 125.392,31.684C124.595,31.684 123.974,31.442 123.525,30.955C123.078,30.471 122.853,29.654 122.853,28.51L122.853,23.936L121.529,23.936L121.529,22.424L122.853,22.424L122.853,20.763L124.832,20.165L124.832,22.423L127.055,22.423L127.055,23.936L127.053,23.936Z" style="fill:white;fill-rule:nonzero;"/>
            <path d="M137.076,26.885C137.076,28.28 136.678,29.424 135.883,30.321C135.049,31.243 133.942,31.702 132.559,31.702C131.227,31.702 130.166,31.261 129.377,30.378C128.586,29.493 128.191,28.38 128.191,27.036C128.191,25.63 128.597,24.479 129.414,23.583C130.228,22.687 131.328,22.239 132.709,22.239C134.041,22.239 135.109,22.68 135.92,23.563C136.691,24.422 137.076,25.529 137.076,26.885ZM134.986,26.951C134.986,26.115 134.804,25.396 134.445,24.799C134.021,24.074 133.418,23.713 132.634,23.713C131.823,23.713 131.208,24.074 130.784,24.799C130.423,25.397 130.243,26.127 130.243,26.988C130.243,27.824 130.423,28.543 130.784,29.14C131.22,29.865 131.831,30.226 132.614,30.226C133.385,30.226 133.989,29.859 134.425,29.122C134.799,28.512 134.986,27.787 134.986,26.951Z" style="fill:white;fill-rule:nonzero;"/>
            <path d="M143.629,24.197C143.43,24.16 143.219,24.142 142.994,24.142C142.285,24.142 141.736,24.41 141.351,24.943C141.015,25.418 140.847,26.015 140.847,26.736L140.847,31.496L138.831,31.496L138.849,25.281C138.849,24.234 138.824,23.283 138.775,22.424L140.529,22.424L140.605,24.16L140.66,24.16C140.873,23.562 141.209,23.084 141.668,22.722C142.117,22.4 142.602,22.238 143.125,22.238C143.313,22.238 143.48,22.25 143.629,22.275L143.629,24.197Z" style="fill:white;fill-rule:nonzero;"/>
            <path d="M152.645,26.531C152.645,26.892 152.62,27.197 152.571,27.445L146.522,27.445C146.547,28.341 146.84,29.025 147.401,29.5C147.911,29.922 148.569,30.135 149.38,30.135C150.275,30.135 151.091,29.99 151.825,29.705L152.141,31.105C151.284,31.478 150.268,31.664 149.098,31.664C147.692,31.664 146.588,31.252 145.786,30.424C144.984,29.596 144.581,28.485 144.581,27.092C144.581,25.723 144.954,24.584 145.702,23.676C146.485,22.705 147.544,22.219 148.876,22.219C150.183,22.219 151.171,22.705 151.843,23.676C152.377,24.447 152.645,25.398 152.645,26.531ZM150.723,26.008C150.735,25.41 150.604,24.895 150.33,24.459C149.982,23.898 149.447,23.619 148.725,23.619C148.065,23.619 147.53,23.892 147.12,24.439C146.784,24.877 146.585,25.398 146.522,26.007L150.723,26.007L150.723,26.008Z" style="fill:white;fill-rule:nonzero;"/>
        </g>
        <g>
            <path d="M48.96,10.009C48.96,11.186 48.607,12.072 47.902,12.667C47.249,13.216 46.321,13.491 45.119,13.491C44.523,13.491 44.013,13.465 43.586,13.413L43.586,6.982C44.143,6.892 44.743,6.846 45.391,6.846C46.536,6.846 47.399,7.095 47.981,7.593C48.633,8.156 48.96,8.961 48.96,10.009ZM47.854,10.038C47.854,9.275 47.652,8.69 47.248,8.282C46.844,7.875 46.254,7.671 45.477,7.671C45.147,7.671 44.866,7.693 44.633,7.739L44.633,12.628C44.762,12.648 44.998,12.657 45.341,12.657C46.143,12.657 46.762,12.434 47.198,11.988C47.634,11.542 47.854,10.892 47.854,10.038Z" style="fill:white;fill-rule:nonzero;"/>
            <path d="M54.818,11.037C54.818,11.762 54.611,12.356 54.197,12.822C53.763,13.301 53.188,13.54 52.47,13.54C51.778,13.54 51.227,13.311 50.816,12.851C50.406,12.392 50.201,11.813 50.201,11.115C50.201,10.385 50.412,9.786 50.836,9.321C51.26,8.856 51.83,8.623 52.548,8.623C53.24,8.623 53.796,8.852 54.217,9.311C54.617,9.757 54.818,10.333 54.818,11.037ZM53.731,11.071C53.731,10.636 53.637,10.263 53.45,9.952C53.23,9.576 52.917,9.388 52.51,9.388C52.089,9.388 51.769,9.576 51.549,9.952C51.361,10.263 51.268,10.642 51.268,11.09C51.268,11.525 51.362,11.898 51.549,12.209C51.776,12.585 52.092,12.773 52.5,12.773C52.9,12.773 53.214,12.582 53.44,12.199C53.635,11.882 53.731,11.506 53.731,11.071Z" style="fill:white;fill-rule:nonzero;"/>
            <path d="M62.675,8.719L61.2,13.433L60.24,13.433L59.629,11.386C59.474,10.875 59.348,10.367 59.25,9.863L59.231,9.863C59.14,10.381 59.014,10.888 58.852,11.386L58.203,13.433L57.232,13.433L55.845,8.719L56.922,8.719L57.455,10.96C57.584,11.49 57.69,11.995 57.775,12.473L57.794,12.473C57.872,12.079 58.001,11.577 58.183,10.97L58.852,8.72L59.706,8.72L60.347,10.922C60.502,11.459 60.628,11.976 60.725,12.474L60.754,12.474C60.825,11.989 60.932,11.472 61.074,10.922L61.646,8.72L62.675,8.72L62.675,8.719Z" style="fill:white;fill-rule:nonzero;"/>
            <path d="M68.107,13.433L67.06,13.433L67.06,10.733C67.06,9.901 66.744,9.485 66.11,9.485C65.799,9.485 65.548,9.599 65.353,9.828C65.16,10.057 65.062,10.327 65.062,10.636L65.062,13.432L64.014,13.432L64.014,10.066C64.014,9.652 64.001,9.203 63.976,8.717L64.897,8.717L64.946,9.454L64.975,9.454C65.097,9.225 65.279,9.036 65.518,8.885C65.802,8.709 66.12,8.62 66.468,8.62C66.908,8.62 67.274,8.762 67.565,9.047C67.927,9.396 68.108,9.917 68.108,10.609L68.108,13.433L68.107,13.433Z" style="fill:white;fill-rule:nonzero;"/>
            <rect x="69.95" y="6.556" width="1.048" height="6.877" style="fill:white;fill-rule:nonzero;"/>
            <path d="M77.167,11.037C77.167,11.762 76.96,12.356 76.546,12.822C76.112,13.301 75.537,13.54 74.819,13.54C74.127,13.54 73.576,13.311 73.165,12.851C72.755,12.392 72.55,11.813 72.55,11.115C72.55,10.385 72.761,9.786 73.185,9.321C73.609,8.856 74.179,8.623 74.897,8.623C75.589,8.623 76.145,8.852 76.566,9.311C76.966,9.757 77.167,10.333 77.167,11.037ZM76.08,11.071C76.08,10.636 75.986,10.263 75.799,9.952C75.579,9.576 75.266,9.388 74.859,9.388C74.438,9.388 74.118,9.576 73.898,9.952C73.71,10.263 73.617,10.642 73.617,11.09C73.617,11.525 73.711,11.898 73.898,12.209C74.125,12.585 74.441,12.773 74.849,12.773C75.249,12.773 75.563,12.582 75.789,12.199C75.983,11.882 76.08,11.506 76.08,11.071Z" style="fill:white;fill-rule:nonzero;"/>
            <path d="M82.239,13.433L81.298,13.433L81.221,12.89L81.192,12.89C80.869,13.323 80.41,13.54 79.815,13.54C79.369,13.54 79.009,13.397 78.738,13.113C78.492,12.855 78.37,12.534 78.37,12.153C78.37,11.577 78.61,11.138 79.093,10.834C79.574,10.53 80.252,10.381 81.125,10.388L81.125,10.3C81.125,9.679 80.799,9.369 80.147,9.369C79.682,9.369 79.272,9.486 78.918,9.718L78.705,9.03C79.143,8.759 79.684,8.623 80.322,8.623C81.555,8.623 82.172,9.273 82.172,10.573L82.172,12.309C82.171,12.78 82.194,13.155 82.239,13.433ZM81.152,11.813L81.152,11.086C79.995,11.066 79.417,11.383 79.417,12.036C79.417,12.282 79.484,12.466 79.619,12.589C79.754,12.712 79.925,12.773 80.13,12.773C80.361,12.773 80.575,12.7 80.772,12.555C80.969,12.41 81.089,12.224 81.134,11.997C81.146,11.946 81.152,11.884 81.152,11.813Z" style="fill:white;fill-rule:nonzero;"/>
            <path d="M88.195,13.433L87.264,13.433L87.215,12.676L87.186,12.676C86.889,13.252 86.384,13.54 85.673,13.54C85.104,13.54 84.632,13.317 84.257,12.871C83.882,12.425 83.695,11.846 83.695,11.135C83.695,10.372 83.898,9.754 84.305,9.282C84.7,8.842 85.185,8.622 85.76,8.622C86.394,8.622 86.837,8.835 87.089,9.262L87.109,9.262L87.109,6.556L88.157,6.556L88.157,12.163C88.157,12.622 88.17,13.045 88.195,13.433ZM87.109,11.445L87.109,10.659C87.109,10.523 87.099,10.413 87.08,10.329C87.021,10.077 86.894,9.865 86.7,9.694C86.505,9.523 86.271,9.437 85.999,9.437C85.609,9.437 85.303,9.592 85.078,9.903C84.854,10.214 84.742,10.611 84.742,11.096C84.742,11.562 84.849,11.94 85.064,12.231C85.291,12.541 85.596,12.696 85.979,12.696C86.323,12.696 86.599,12.567 86.807,12.308C87.009,12.069 87.109,11.781 87.109,11.445Z" style="fill:white;fill-rule:nonzero;"/>
            <path d="M97.158,11.037C97.158,11.762 96.951,12.356 96.537,12.822C96.103,13.301 95.528,13.54 94.81,13.54C94.118,13.54 93.567,13.311 93.156,12.851C92.746,12.392 92.541,11.813 92.541,11.115C92.541,10.385 92.752,9.786 93.176,9.321C93.6,8.856 94.17,8.623 94.888,8.623C95.58,8.623 96.136,8.852 96.557,9.311C96.957,9.757 97.158,10.333 97.158,11.037ZM96.071,11.071C96.071,10.636 95.977,10.263 95.79,9.952C95.57,9.576 95.257,9.388 94.85,9.388C94.429,9.388 94.109,9.576 93.889,9.952C93.701,10.263 93.608,10.642 93.608,11.09C93.608,11.525 93.702,11.898 93.889,12.209C94.116,12.585 94.432,12.773 94.84,12.773C95.24,12.773 95.554,12.582 95.78,12.199C95.975,11.882 96.071,11.506 96.071,11.071Z" style="fill:white;fill-rule:nonzero;"/>
            <path d="M102.793,13.433L101.745,13.433L101.745,10.733C101.745,9.901 101.429,9.485 100.795,9.485C100.484,9.485 100.233,9.599 100.038,9.828C99.845,10.057 99.747,10.327 99.747,10.636L99.747,13.432L98.699,13.432L98.699,10.066C98.699,9.652 98.686,9.203 98.661,8.717L99.582,8.717L99.631,9.454L99.66,9.454C99.782,9.225 99.964,9.036 100.203,8.885C100.487,8.709 100.805,8.62 101.153,8.62C101.593,8.62 101.959,8.762 102.25,9.047C102.612,9.396 102.793,9.917 102.793,10.609L102.793,13.433Z" style="fill:white;fill-rule:nonzero;"/>
            <path d="M109.846,9.504L108.692,9.504L108.692,11.794C108.692,12.376 108.896,12.667 109.303,12.667C109.491,12.667 109.646,12.651 109.769,12.618L109.797,13.413C109.59,13.491 109.318,13.53 108.983,13.53C108.569,13.53 108.246,13.404 108.013,13.152C107.78,12.9 107.663,12.476 107.663,11.881L107.663,9.504L106.975,9.504L106.975,8.719L107.663,8.719L107.663,7.855L108.691,7.545L108.691,8.718L109.845,8.718L109.845,9.504L109.846,9.504Z" style="fill:white;fill-rule:nonzero;"/>
            <path d="M115.442,13.433L114.394,13.433L114.394,10.753C114.394,9.908 114.078,9.485 113.444,9.485C112.959,9.485 112.626,9.73 112.445,10.22C112.413,10.323 112.396,10.449 112.396,10.597L112.396,13.432L111.348,13.432L111.348,6.556L112.396,6.556L112.396,9.397L112.416,9.397C112.746,8.88 113.218,8.622 113.832,8.622C114.266,8.622 114.624,8.764 114.909,9.049C115.264,9.404 115.442,9.932 115.442,10.63L115.442,13.433Z" style="fill:white;fill-rule:nonzero;"/>
            <path d="M120.875,10.853C120.875,11.041 120.861,11.199 120.836,11.328L117.693,11.328C117.706,11.794 117.857,12.149 118.148,12.395C118.414,12.615 118.756,12.725 119.176,12.725C119.642,12.725 120.066,12.651 120.447,12.502L120.611,13.23C120.165,13.424 119.638,13.521 119.03,13.521C118.3,13.521 117.725,13.306 117.308,12.876C116.891,12.446 116.683,11.869 116.683,11.145C116.683,10.434 116.876,9.842 117.265,9.37C117.672,8.866 118.221,8.614 118.913,8.614C119.592,8.614 120.106,8.866 120.455,9.37C120.735,9.77 120.875,10.265 120.875,10.853ZM119.875,10.582C119.882,10.271 119.813,10.003 119.672,9.777C119.49,9.486 119.213,9.34 118.838,9.34C118.495,9.34 118.217,9.482 118.003,9.767C117.829,9.994 117.726,10.265 117.693,10.582L119.875,10.582Z" style="fill:white;fill-rule:nonzero;"/>
        </g>
    </g>
</svg>
