<?xml version="1.0" encoding="utf-8"?>
<!-- Generator: Adobe Illustrator 20.0.0, SVG Export Plug-In . SVG Version: 6.00 Build 0)  -->
<svg version="1.1" id="Layer_1" xmlns="http://www.w3.org/2000/svg" xmlns:xlink="http://www.w3.org/1999/xlink" x="0px" y="0px"
	 width="169px" height="50px" viewBox="0 0 169 50" style="enable-background:new 0 0 169 50;" xml:space="preserve">
<style type="text/css">
	.st0{fill:#FFFFFF;}
</style>
<title>app-store</title>
<desc>Created with Sketch.</desc>
<g id="Concept">
	<g id="Desktop" transform="translate(-445.000000, -650.000000)">
		<g id="app-store" transform="translate(445.000000, 650.000000)">
			<g id="Group">
				<path id="Shape_1_" d="M167.7,44.1c0,2.7-2.2,4.8-4.8,4.8H5.2c-2.7,0-4.8-2.2-4.8-4.8V5.8C0.4,3.1,2.6,1,5.2,1h157.6
					c2.7,0,4.8,2.2,4.8,4.8L167.7,44.1L167.7,44.1L167.7,44.1z"/>
				<g id="Shape_2_" transform="translate(12.000000, 6.000000)">
					<path class="st0" d="M25.1,18.7c0-4,3.3-6,3.5-6.1c-1.9-2.8-4.8-3.1-5.9-3.2c-2.5-0.3-4.9,1.5-6.1,1.5c-1.3,0-3.2-1.5-5.3-1.4
						c-2.7,0-5.2,1.6-6.6,4c-2.8,4.9-0.7,12.2,2,16.2c1.4,2,3,4.1,5,4.1c2-0.1,2.8-1.3,5.3-1.3c2.4,0,3.2,1.3,5.3,1.3
						c2.2,0,3.6-2,4.9-3.9c1.6-2.2,2.2-4.4,2.2-4.6C29.4,25.1,25.2,23.5,25.1,18.7L25.1,18.7z"/>
					<path class="st0" d="M21.1,6.8c1.1-1.4,1.8-3.2,1.6-5.1c-1.6,0.1-3.6,1.1-4.7,2.4c-1,1.2-1.9,3.1-1.7,4.9
						C18.1,9.2,20,8.1,21.1,6.8L21.1,6.8z"/>
				</g>
				<g id="Shape_3_" transform="translate(42.000000, 18.000000)">
					<path class="st0" d="M24.7,21.4h-2.9l-1.6-4.9h-5.4l-1.5,4.9h-2.8l5.4-16.7h3.3L24.7,21.4L24.7,21.4z M19.8,14.4l-1.4-4.4
						c-0.1-0.4-0.4-1.5-0.8-3.1h-0.1c-0.2,0.7-0.4,1.8-0.8,3.1l-1.4,4.4H19.8L19.8,14.4z"/>
					<path class="st0" d="M38.5,15.2c0,2.1-0.6,3.7-1.7,4.9c-1,1.1-2.2,1.6-3.7,1.6c-1.6,0-2.7-0.6-3.4-1.7h-0.1v6.4H27v-13
						c0-1.3,0-2.6-0.1-4h2.4l0.1,1.9h0.1c0.9-1.4,2.2-2.2,4.1-2.2c1.4,0,2.6,0.6,3.6,1.7C38,11.9,38.5,13.4,38.5,15.2L38.5,15.2z
						 M35.8,15.3c0-1.2-0.3-2.1-0.8-2.9c-0.6-0.8-1.4-1.2-2.3-1.2c-0.7,0-1.3,0.2-1.8,0.7c-0.5,0.4-0.9,1-1.1,1.7
						c-0.1,0.3-0.1,0.6-0.1,0.8v2c0,0.9,0.3,1.6,0.8,2.2c0.5,0.6,1.2,0.9,2.1,0.9c1,0,1.8-0.4,2.4-1.2
						C35.5,17.6,35.8,16.6,35.8,15.3L35.8,15.3z"/>
					<path class="st0" d="M52.4,15.2c0,2.1-0.6,3.7-1.7,4.9c-1,1.1-2.2,1.6-3.7,1.6c-1.6,0-2.7-0.6-3.4-1.7h-0.1v6.4h-2.7v-13
						c0-1.3,0-2.6-0.1-4h2.4l0.1,1.9h0.1c0.9-1.4,2.2-2.2,4.1-2.2c1.4,0,2.6,0.6,3.6,1.7C51.9,11.9,52.4,13.4,52.4,15.2L52.4,15.2z
						 M49.6,15.3c0-1.2-0.3-2.1-0.8-2.9c-0.6-0.8-1.4-1.2-2.3-1.2c-0.7,0-1.3,0.2-1.8,0.7c-0.5,0.4-0.9,1-1.1,1.7
						c-0.1,0.3-0.1,0.6-0.1,0.8v2c0,0.9,0.3,1.6,0.8,2.2c0.5,0.6,1.2,0.9,2.1,0.9c1,0,1.8-0.4,2.4-1.2
						C49.4,17.6,49.6,16.6,49.6,15.3L49.6,15.3z"/>
					<path class="st0" d="M67.9,16.7c0,1.4-0.5,2.6-1.5,3.5c-1.1,1-2.6,1.5-4.6,1.5c-1.8,0-3.2-0.3-4.3-1l0.6-2.2
						c1.2,0.7,2.5,1.1,3.9,1.1c1,0,1.8-0.2,2.4-0.7c0.6-0.5,0.8-1.1,0.8-1.8c0-0.7-0.2-1.3-0.7-1.7c-0.5-0.5-1.2-0.9-2.3-1.3
						c-2.9-1.1-4.4-2.7-4.4-4.8c0-1.4,0.5-2.5,1.5-3.4c1-0.9,2.4-1.3,4.1-1.3c1.5,0,2.8,0.3,3.8,0.8l-0.7,2.2
						c-0.9-0.5-2-0.8-3.2-0.8c-0.9,0-1.7,0.2-2.2,0.7c-0.4,0.4-0.7,0.9-0.7,1.5c0,0.7,0.3,1.2,0.8,1.6c0.4,0.4,1.3,0.8,2.4,1.3
						c1.4,0.6,2.5,1.3,3.2,2C67.5,14.6,67.9,15.6,67.9,16.7L67.9,16.7z"/>
					<path class="st0" d="M76.7,11.4h-3v5.9c0,1.5,0.5,2.2,1.6,2.2c0.5,0,0.9,0,1.2-0.1l0.1,2c-0.5,0.2-1.2,0.3-2.1,0.3
						c-1.1,0-1.9-0.3-2.5-1c-0.6-0.6-0.9-1.7-0.9-3.3v-6.1h-1.8v-2h1.8V7.1l2.6-0.8v3h3V11.4L76.7,11.4z"/>
					<path class="st0" d="M90.1,15.3c0,1.9-0.5,3.4-1.6,4.6c-1.1,1.2-2.6,1.8-4.4,1.8c-1.8,0-3.2-0.6-4.2-1.8
						c-1.1-1.2-1.6-2.7-1.6-4.4c0-1.9,0.5-3.4,1.6-4.6c1.1-1.2,2.5-1.8,4.4-1.8c1.8,0,3.2,0.6,4.3,1.8C89.5,12,90.1,13.5,90.1,15.3
						L90.1,15.3z M87.3,15.4c0-1.1-0.2-2.1-0.7-2.9c-0.6-1-1.4-1.4-2.4-1.4c-1.1,0-1.9,0.5-2.5,1.4c-0.5,0.8-0.7,1.8-0.7,2.9
						c0,1.1,0.2,2.1,0.7,2.9c0.6,1,1.4,1.4,2.4,1.4c1,0,1.8-0.5,2.4-1.5C87,17.4,87.3,16.5,87.3,15.4L87.3,15.4z"/>
					<path class="st0" d="M98.8,11.7c-0.3,0-0.5-0.1-0.8-0.1c-0.9,0-1.7,0.4-2.2,1.1c-0.4,0.6-0.7,1.4-0.7,2.4v6.3h-2.7l0-8.3
						c0-1.4,0-2.7-0.1-3.8h2.3l0.1,2.3h0.1c0.3-0.8,0.7-1.4,1.3-1.9c0.6-0.4,1.2-0.6,1.9-0.6c0.2,0,0.5,0,0.7,0V11.7L98.8,11.7z"/>
					<path class="st0" d="M110.7,14.8c0,0.5,0,0.9-0.1,1.2h-8c0,1.2,0.4,2.1,1.2,2.7c0.7,0.6,1.6,0.8,2.6,0.8c1.2,0,2.3-0.2,3.3-0.6
						l0.4,1.9c-1.1,0.5-2.5,0.7-4,0.7c-1.9,0-3.3-0.6-4.4-1.6c-1.1-1.1-1.6-2.6-1.6-4.4c0-1.8,0.5-3.3,1.5-4.5
						c1-1.3,2.4-1.9,4.2-1.9c1.7,0,3.1,0.6,3.9,1.9C110.4,12,110.7,13.3,110.7,14.8L110.7,14.8z M108.2,14.1c0-0.8-0.2-1.5-0.5-2.1
						c-0.5-0.7-1.2-1.1-2.1-1.1c-0.9,0-1.6,0.4-2.1,1.1c-0.4,0.6-0.7,1.3-0.8,2.1L108.2,14.1L108.2,14.1z"/>
				</g>
				<g id="Shape_4_" transform="translate(43.000000, 6.000000)">
					<path class="st0" d="M17.9,6.4c0,1.5-0.4,2.6-1.3,3.3c-0.8,0.7-2,1-3.5,1c-0.7,0-1.4,0-1.9-0.1V2.6c0.7-0.1,1.5-0.2,2.3-0.2
						c1.4,0,2.5,0.3,3.3,0.9C17.5,4.1,17.9,5.1,17.9,6.4L17.9,6.4z M16.5,6.4c0-1-0.3-1.7-0.8-2.2c-0.5-0.5-1.2-0.8-2.2-0.8
						c-0.4,0-0.8,0-1.1,0.1v6.1c0.2,0,0.5,0,0.9,0c1,0,1.8-0.3,2.3-0.8C16.2,8.3,16.5,7.5,16.5,6.4L16.5,6.4z"/>
					<path class="st0" d="M25.3,7.7c0,0.9-0.3,1.7-0.8,2.2c-0.5,0.6-1.3,0.9-2.2,0.9c-0.9,0-1.6-0.3-2.1-0.9
						c-0.5-0.6-0.8-1.3-0.8-2.2c0-0.9,0.3-1.7,0.8-2.3s1.2-0.9,2.2-0.9c0.9,0,1.6,0.3,2.1,0.9C25,6.1,25.3,6.8,25.3,7.7L25.3,7.7z
						 M23.9,7.7c0-0.5-0.1-1-0.4-1.4c-0.3-0.5-0.7-0.7-1.2-0.7c-0.5,0-0.9,0.2-1.2,0.7c-0.2,0.4-0.4,0.9-0.4,1.4
						c0,0.5,0.1,1,0.4,1.4c0.3,0.5,0.7,0.7,1.2,0.7c0.5,0,0.9-0.2,1.2-0.7C23.8,8.8,23.9,8.3,23.9,7.7L23.9,7.7z"/>
					<path class="st0" d="M35.1,4.8l-1.9,5.9h-1.2l-0.8-2.6c-0.2-0.6-0.4-1.3-0.5-1.9h0c-0.1,0.7-0.3,1.3-0.5,1.9l-0.8,2.6h-1.2
						l-1.7-5.9h1.4l0.7,2.8c0.2,0.7,0.3,1.3,0.4,1.9h0c0.1-0.5,0.3-1.1,0.5-1.9l0.8-2.8h1.1l0.8,2.8c0.2,0.7,0.4,1.3,0.5,1.9h0
						c0.1-0.6,0.2-1.3,0.4-1.9l0.7-2.8L35.1,4.8L35.1,4.8z"/>
					<path class="st0" d="M42,10.7h-1.3V7.3c0-1-0.4-1.6-1.2-1.6c-0.4,0-0.7,0.1-1,0.4c-0.2,0.3-0.4,0.6-0.4,1v3.5h-1.3V6.5
						c0-0.5,0-1.1,0-1.7h1.2L38,5.7h0c0.2-0.3,0.4-0.5,0.7-0.7c0.4-0.2,0.8-0.3,1.2-0.3c0.6,0,1,0.2,1.4,0.5c0.5,0.4,0.7,1.1,0.7,2
						V10.7L42,10.7z"/>
					<polygon class="st0" points="45.6,10.7 44.3,10.7 44.3,2.1 45.6,2.1 					"/>
					<path class="st0" d="M53.3,7.7c0,0.9-0.3,1.7-0.8,2.2c-0.5,0.6-1.3,0.9-2.2,0.9c-0.9,0-1.6-0.3-2.1-0.9
						c-0.5-0.6-0.8-1.3-0.8-2.2c0-0.9,0.3-1.7,0.8-2.3s1.2-0.9,2.1-0.9c0.9,0,1.6,0.3,2.1,0.9C53.1,6.1,53.3,6.8,53.3,7.7L53.3,7.7z
						 M52,7.7c0-0.5-0.1-1-0.4-1.4c-0.3-0.5-0.7-0.7-1.2-0.7c-0.5,0-0.9,0.2-1.2,0.7c-0.2,0.4-0.4,0.9-0.4,1.4c0,0.5,0.1,1,0.4,1.4
						c0.3,0.5,0.7,0.7,1.2,0.7c0.5,0,0.9-0.2,1.2-0.7C51.8,8.8,52,8.3,52,7.7L52,7.7z"/>
					<path class="st0" d="M59.7,10.7h-1.2L58.4,10h0c-0.4,0.5-1,0.8-1.7,0.8c-0.6,0-1-0.2-1.4-0.5C55,10,54.8,9.6,54.8,9.1
						c0-0.7,0.3-1.3,0.9-1.7c0.6-0.4,1.5-0.6,2.6-0.6V6.8c0-0.8-0.4-1.2-1.2-1.2c-0.6,0-1.1,0.1-1.5,0.4l-0.3-0.9
						c0.6-0.3,1.2-0.5,2-0.5c1.5,0,2.3,0.8,2.3,2.4v2.2C59.6,9.9,59.7,10.4,59.7,10.7L59.7,10.7z M58.3,8.7V7.8
						c-1.5,0-2.2,0.4-2.2,1.2c0,0.3,0.1,0.5,0.3,0.7c0.2,0.2,0.4,0.2,0.6,0.2c0.3,0,0.6-0.1,0.8-0.3c0.2-0.2,0.4-0.4,0.5-0.7
						C58.3,8.8,58.3,8.8,58.3,8.7L58.3,8.7z"/>
					<path class="st0" d="M67.2,10.7H66l-0.1-1h0c-0.4,0.7-1,1.1-1.9,1.1c-0.7,0-1.3-0.3-1.8-0.8c-0.5-0.6-0.7-1.3-0.7-2.2
						c0-1,0.3-1.7,0.8-2.3c0.5-0.6,1.1-0.8,1.8-0.8c0.8,0,1.4,0.3,1.7,0.8h0V2.1h1.3v7C67.1,9.7,67.2,10.2,67.2,10.7L67.2,10.7z
						 M65.8,8.2v-1c0-0.2,0-0.3,0-0.4c-0.1-0.3-0.2-0.6-0.5-0.8c-0.2-0.2-0.5-0.3-0.9-0.3c-0.5,0-0.9,0.2-1.2,0.6
						c-0.3,0.4-0.4,0.9-0.4,1.5c0,0.6,0.1,1.1,0.4,1.4c0.3,0.4,0.7,0.6,1.2,0.6c0.4,0,0.8-0.2,1-0.5C65.7,9,65.8,8.6,65.8,8.2
						L65.8,8.2z"/>
					<path class="st0" d="M78.4,7.7c0,0.9-0.3,1.7-0.8,2.2c-0.5,0.6-1.3,0.9-2.2,0.9c-0.9,0-1.6-0.3-2.1-0.9
						c-0.5-0.6-0.8-1.3-0.8-2.2c0-0.9,0.3-1.7,0.8-2.3s1.2-0.9,2.2-0.9c0.9,0,1.6,0.3,2.1,0.9C78.2,6.1,78.4,6.8,78.4,7.7L78.4,7.7z
						 M77.1,7.7c0-0.5-0.1-1-0.4-1.4c-0.3-0.5-0.7-0.7-1.2-0.7c-0.5,0-0.9,0.2-1.2,0.7C74.1,6.7,74,7.2,74,7.8c0,0.5,0.1,1,0.4,1.4
						c0.3,0.5,0.7,0.7,1.2,0.7c0.5,0,0.9-0.2,1.2-0.7C77,8.8,77.1,8.3,77.1,7.7L77.1,7.7z"/>
					<path class="st0" d="M85.5,10.7h-1.3V7.3c0-1-0.4-1.6-1.2-1.6c-0.4,0-0.7,0.1-0.9,0.4s-0.4,0.6-0.4,1v3.5h-1.3V6.5
						c0-0.5,0-1.1,0-1.7h1.2l0.1,0.9h0C81.7,5.4,82,5.2,82.3,5c0.4-0.2,0.8-0.3,1.2-0.3c0.6,0,1,0.2,1.4,0.5c0.5,0.4,0.7,1.1,0.7,2
						V10.7L85.5,10.7z"/>
					<path class="st0" d="M94.4,5.8h-1.4v2.9c0,0.7,0.3,1.1,0.8,1.1c0.2,0,0.4,0,0.6-0.1l0,1c-0.3,0.1-0.6,0.1-1,0.1
						c-0.5,0-0.9-0.2-1.2-0.5c-0.3-0.3-0.4-0.8-0.4-1.6v-3h-0.9v-1h0.9V3.7l1.3-0.4v1.5h1.4L94.4,5.8L94.4,5.8z"/>
					<path class="st0" d="M101.4,10.7H100V7.3c0-1.1-0.4-1.6-1.2-1.6c-0.6,0-1,0.3-1.3,0.9c0,0.1-0.1,0.3-0.1,0.5v3.6h-1.3V2.1h1.3
						v3.6h0c0.4-0.6,1-1,1.8-1c0.5,0,1,0.2,1.4,0.5c0.4,0.4,0.7,1.1,0.7,2V10.7L101.4,10.7z"/>
					<path class="st0" d="M108.5,7.5c0,0.2,0,0.4,0,0.6h-3.9c0,0.6,0.2,1,0.6,1.3c0.3,0.3,0.8,0.4,1.3,0.4c0.6,0,1.1-0.1,1.6-0.3
						l0.2,0.9c-0.6,0.2-1.2,0.4-2,0.4c-0.9,0-1.6-0.3-2.2-0.8c-0.5-0.5-0.8-1.3-0.8-2.2c0-0.9,0.2-1.6,0.7-2.2
						c0.5-0.6,1.2-0.9,2.1-0.9c0.9,0,1.5,0.3,1.9,0.9C108.4,6.1,108.5,6.7,108.5,7.5L108.5,7.5z M107.3,7.1c0-0.4-0.1-0.7-0.3-1
						c-0.2-0.4-0.6-0.5-1-0.5c-0.4,0-0.8,0.2-1,0.5c-0.2,0.3-0.3,0.6-0.4,1H107.3L107.3,7.1z"/>
				</g>
			</g>
		</g>
	</g>
</g>
</svg>
