<?xml version="1.0" encoding="UTF-8"?>
<svg width="125px" height="125px" viewBox="0 0 125 125" version="1.1" xmlns="http://www.w3.org/2000/svg" xmlns:xlink="http://www.w3.org/1999/xlink">
    <!-- Generator: Sketch 44.1 (41455) - http://www.bohemiancoding.com/sketch -->
    <title>Group</title>
    <desc>Created with Sketch.</desc>
    <defs></defs>
    <g id="Page-1" stroke="none" stroke-width="1" fill="none" fill-rule="evenodd">
        <g id="Group" transform="translate(-11.000000, 12.000000)" fill-rule="nonzero" fill="#444444">
            <path d="M42.131452,71.2663431 C50.3834051,71.4731751 53.0494207,74.7739563 53.0494207,84.7397766 L53.0494207,100.481964 C53.0494207,116.858917 61.1109442,124.095245 79.3921942,124.095245 L84.9781317,124.095245 L84.9781317,112.225128 L82.1216864,112.225128 C71.7750067,112.225128 68.0933661,108.67044 68.0933661,98.768097 L68.0933661,80.2964173 C68.0933661,70.7749329 63.8404364,65.5698548 55.5250067,64.808136 L55.5250067,63.0307923 C64.0943426,62.205597 68.0933661,57.4448548 68.0933661,48.2407532 L68.0933661,31.6733704 C68.0933661,21.580597 71.6480536,18.089386 82.1216864,18.089386 L84.9781317,18.089386 L84.9781317,6.28274535 L79.3921942,6.28274535 C61.0474676,6.28274535 53.0494207,13.2651672 53.0494207,29.261261 L53.0494207,42.908722 C53.0494207,52.8745423 50.3199286,56.2388001 42.131452,56.2388001 C38.2224361,56.5564407 35.131452,59.8086241 35.131452,63.7827454 C35.131452,67.7568667 38.2224361,71.0090501 42.131452,71.2663431 Z" id="transmitter" transform="translate(60.054792, 65.188995) rotate(-45.000000) translate(-60.054792, -65.188995) "></path>
            <circle id="Oval-1" opacity="0.5" transform="translate(76.438746, 46.816303) rotate(-45.000000) translate(-76.438746, -46.816303) " cx="76.438746" cy="46.8163034" r="7.5"></circle>
            <circle id="Oval-2" opacity="0.5" transform="translate(94.116416, 29.138634) rotate(-45.000000) translate(-94.116416, -29.138634) " cx="94.1164155" cy="29.1386339" r="7.5"></circle>
            <circle id="Oval-3" opacity="0.5" transform="translate(111.794085, 11.460964) rotate(-45.000000) translate(-111.794085, -11.460964) " cx="111.794085" cy="11.4609643" r="7.5"></circle>
        </g>
    </g>
</svg>