<?xml version="1.0" encoding="UTF-8" standalone="no"?>
<svg width="400px" height="200px" viewBox="0 0 400 200" version="1.1" xmlns="http://www.w3.org/2000/svg" xmlns:xlink="http://www.w3.org/1999/xlink">
    <!-- Generator: Sketch 3.8.3 (29802) - http://www.bohemiancoding.com/sketch -->
    <title>step-one</title>
    <desc>Created with Sketch.</desc>
    <defs></defs>
    <g id="Concept" stroke="none" stroke-width="1" fill="none" fill-rule="evenodd">
        <g id="step-one" fill="#25658D">
            <polygon id="Fill-3" points="196 109 223.564419 109 223.564419 111 196 111"></polygon>
            <polygon id="Fill-5" points="196 113 223.564419 113 223.564419 115 196 115"></polygon>
            <polygon id="Fill-7" points="196 117 206.690909 117 206.690909 119 196 119"></polygon>
            <path d="M223.5,82.6666667 L196.166667,82.6666667 L196.166667,103.166667 L223.5,103.166667 L223.5,82.6666667 L223.5,82.6666667 Z M184.944444,82.6666667 L175.166667,82.6666667 L175.166667,90 L184.944444,90 L184.944444,82.6666667 L184.944444,82.6666667 Z M184.944444,92.6666667 L175.166667,92.6666667 L175.166667,100 L184.944444,100 L184.944444,92.6666667 L184.944444,92.6666667 Z M184.944444,102.666667 L175.166667,102.666667 L175.166667,110 L184.944444,110 L184.944444,102.666667 L184.944444,102.666667 Z M184.944444,112.666667 L175.166667,112.666667 L175.166667,120 L184.944444,120 L184.944444,112.666667 L184.944444,112.666667 Z M230.333333,71 L168.833333,71 C165.057917,71 162,74.0579167 162,77.8333333 L162,125.666667 C162,129.442082 165.057917,132.431665 168.833333,132.431665 L230.333333,132.431665 C234.10875,132.431665 237.166667,129.425002 237.166667,125.666667 L237.166667,77.8333333 C237.166667,74.0579167 234.10875,71 230.333333,71 L230.333333,71 Z M168.833333,125.717915 L168.833333,77.7820833 L230.333333,77.7820833 L230.333333,125.717915 L168.833333,125.717915 Z" id="Page-1"></path>
        </g>
    </g>
</svg>