<?xml version="1.0" encoding="UTF-8" standalone="no"?>
<svg width="400px" height="200px" viewBox="0 0 400 200" version="1.1" xmlns="http://www.w3.org/2000/svg" xmlns:xlink="http://www.w3.org/1999/xlink">
    <!-- Generator: Sketch 3.8.3 (29802) - http://www.bohemiancoding.com/sketch -->
    <title>step-three</title>
    <desc>Created with Sketch.</desc>
    <defs></defs>
    <g id="Concept" stroke="none" stroke-width="1" fill="none" fill-rule="evenodd">
        <g id="step-three" fill="#25658D">
            <g id="Group" transform="translate(165.000000, 70.000000)">
                <path d="M68.0416667,26.6545833 L53.25,26.625 C51.6229167,26.625 50.2916667,27.95625 50.2916667,29.5833333 L50.2916667,56.2083333 C50.2916667,57.8354137 51.6229167,59.1666667 53.25,59.1666667 L68.0416667,59.1666667 C69.66875,59.1666667 71,57.8354137 71,56.2083333 L71,29.5833333 C71,27.95625 69.66875,26.6545833 68.0416667,26.6545833 L68.0416667,26.6545833 Z M68.0416667,53.25 L53.25,53.25 L53.25,32.5416667 L68.0416667,32.5416667 L68.0416667,53.25 L68.0416667,53.25 Z M59.1666667,0 L5.91666667,0 C2.63291667,0 0,2.63291667 0,5.91666667 L0,41.4166667 C0,44.6708333 2.63291667,47.3333333 5.91666667,47.3333333 L26.625,47.3333333 L26.625,53.25 L20.7083333,53.25 L20.7083333,59.1666667 L44.375,59.1666667 L44.375,53.25 L38.4583333,53.25 L38.4583333,47.3333333 L44.375,47.3333333 L44.375,41.4166667 L5.91666667,41.4166667 L5.91666667,5.91666667 L59.1666667,5.91666667 L59.1666667,20.7083333 L65.0833333,20.7083333 L65.0833333,5.91666667 C65.0833333,2.63291667 62.4208333,0 59.1666667,0 L59.1666667,0 Z" id="Page-1"></path>
                <polygon id="Fill-3" points="27 11 54.5644189 11 54.5644189 13 27 13"></polygon>
                <polygon id="Fill-5" points="27 15 54.5644189 15 54.5644189 17 27 17"></polygon>
                <polygon id="Fill-7" points="27 19 37.6909091 19 37.6909091 21 27 21"></polygon>
                <polygon id="Page-1" points="10 11 10 21.5 24 21.5 24 11"></polygon>
                <polygon id="Page-1" points="56 35 56 42 66 42 66 35"></polygon>
                <polygon id="Fill-3" points="27 26 47 26 47 28 27 28"></polygon>
                <polygon id="Fill-5" points="27 30 47 30 47 32 27 32"></polygon>
                <polygon id="Fill-7" points="27 34 37.6909091 34 37.6909091 36 27 36"></polygon>
                <polygon id="Fill-3" points="56 44 66 44 66 45 56 45"></polygon>
                <polygon id="Fill-5" points="56 46 66 46 66 47 56 47"></polygon>
                <polygon id="Fill-7" points="56 48 61.3454545 48 61.3454545 49 56 49"></polygon>
                <polygon id="Page-1" points="24 26 10 26 10 36.5 24 36.5"></polygon>
            </g>
        </g>
    </g>
</svg>