<?xml version="1.0" encoding="UTF-8" standalone="no"?>
<svg width="400px" height="200px" viewBox="0 0 400 200" version="1.1" xmlns="http://www.w3.org/2000/svg" xmlns:xlink="http://www.w3.org/1999/xlink">
    <!-- Generator: Sketch 3.8.3 (29802) - http://www.bohemiancoding.com/sketch -->
    <title>step-two</title>
    <desc>Created with Sketch.</desc>
    <defs></defs>
    <g id="Concept" stroke="none" stroke-width="1" fill="none" fill-rule="evenodd">
        <g id="step-two">
            <g id="Group-4" transform="translate(121.000000, 81.000000)">
                <polygon id="Fill-1" fill="#25658D" points="5.625 0.45 0 5.625 0 5.625 5.625 5.625"></polygon>
                <g id="Group">
                    <polygon id="Fill-3" fill="#25658D" points="7.875 0 7.875 5.625 7.875 7.875 5.625 7.875 0 7.875 0 36 27 36 27 0"></polygon>
                    <path d="M13.9986784,16.867202 L13.9986784,23.653255 C13.9986784,23.6948978 13.9665165,23.7379704 13.9263631,23.7485418 C13.9263631,23.7485418 13.7528163,23.8058749 13.5069541,23.8058749 C13.2610919,23.8058749 13.0875451,23.7485418 13.0875451,23.7485418 C13.0476064,23.7375591 13.0152297,23.6946785 13.0152297,23.653255 L13.0152297,16.867202 L8.05443561,16.867202 C7.43457658,16.867202 7.03146864,16.3700534 7.15402053,15.7570311 L8.07095388,11.1703975 C8.11184931,10.9658326 8.31234734,10.8 8.518884,10.8 L18.6327637,10.8 C18.8392533,10.8 19.0400158,10.9654296 19.0812465,11.1698299 L20.006555,15.7570311 C20.1302328,16.3701616 19.7284375,16.867202 19.1081394,16.867202 L13.9986784,16.867202 L13.9986784,16.867202 Z M14.2226862,23.2298282 C15.5616824,23.3450727 16.5556451,23.7716326 16.5556451,24.2802198 L16.5556451,24.567033 C16.5556451,25.1640887 15.1858073,25.7142857 13.4960269,25.7142857 C11.8062464,25.7142857 10.4364087,25.1640887 10.4364087,24.567033 L10.4364087,24.2802198 C10.4364087,23.7688695 11.441201,23.3404402 12.791222,23.2279775 L12.791222,23.8829135 C12.791222,23.9195372 12.8185551,23.9600094 12.8522723,23.973243 C12.8522723,23.973243 13.149088,24.1037194 13.5069541,24.1037194 C13.8648201,24.1037194 14.1616359,23.973243 14.1616359,23.973243 C14.195369,23.9603883 14.2226862,23.9195675 14.2226862,23.8829135 L14.2226862,23.2298282 L14.2226862,23.2298282 Z M7.56389729,16.0463642 C7.58125969,15.9879383 7.64421736,15.9405748 7.70483038,15.9405748 L19.3090778,15.9405748 C19.3695506,15.9405748 19.4326385,15.9879045 19.4500109,16.0463642 L19.4841367,16.1612003 L7.52977144,16.1612003 L7.56389729,16.0463642 L7.56389729,16.0463642 Z" id="Combined-Shape" fill="#FFFFFF"></path>
                </g>
            </g>
            <polygon id="Fill-1" fill="#25658D" points="176 98.2857143 194.944444 98.2857143 194.944444 100.714286 176 100.714286"></polygon>
            <polygon id="Fill-3" fill="#25658D" points="189.688889 107.635714 187.977778 105.935714 194.455556 99.5 187.977778 93.0642857 189.688889 91.3642857 197.877778 99.5"></polygon>
            <path d="M163.726,118.708333 L157.37,115.569444 C157.132,115.472222 156.88,115.416667 156.614,115.416667 L155.55,115.416667 L155.55,107.083333 C155.55,105.930556 154.612,105 153.45,105 C152.288,105 151.35,105.930556 151.35,107.083333 L151.35,122 L146.548,121 C146.436,120.986111 146.338,120.958333 146.212,120.958333 C145.778,120.958333 145.386,121.138889 145.106,121.416667 L144,122.527778 L150.916,129.388888 C151.294,129.763889 151.826,130 152.4,130 L161.906,130 C162.956,130 163.768,129.236112 163.922,128.222222 L164.972,120.902778 C164.986,120.805556 165,120.708333 165,120.625 C165,119.763882 164.468007,119.013889 163.726,118.708333 L163.726,118.708333 Z" id="Page-1" fill="#25658D"></path>
            <path d="M222,77.3333333 L228.333333,77.3333333 L228.333333,71 C224.834167,71 222,73.8341667 222,77.3333333 L222,77.3333333 Z M222,102.666667 L228.333333,102.666667 L228.333333,96.3333333 L222,96.3333333 L222,102.666667 L222,102.666667 Z M234.666667,128 L241,128 L241,121.666667 L234.666667,121.666667 L234.666667,128 L234.666667,128 Z M222,90 L228.333333,90 L228.333333,83.6666667 L222,83.6666667 L222,90 L222,90 Z M253.666667,71 L247.333333,71 L247.333333,77.3333333 L253.666667,77.3333333 L253.666667,71 L253.666667,71 Z M272.666667,71 L272.666667,77.3333333 L279,77.3333333 C279,73.8341667 276.165833,71 272.666667,71 L272.666667,71 Z M228.333333,128 L228.333333,121.666667 L222,121.666667 C222,125.165832 224.834167,128 228.333333,128 L228.333333,128 Z M222,115.333333 L228.333333,115.333333 L228.333333,109 L222,109 L222,115.333333 L222,115.333333 Z M241,71 L234.666667,71 L234.666667,77.3333333 L241,77.3333333 L241,71 L241,71 Z M247.333333,128 L253.666667,128 L253.666667,121.666667 L247.333333,121.666667 L247.333333,128 L247.333333,128 Z M272.666667,102.666667 L279,102.666667 L279,96.3333333 L272.666667,96.3333333 L272.666667,102.666667 L272.666667,102.666667 Z M272.666667,128 C276.165833,128 279,125.165832 279,121.666667 L272.666667,121.666667 L272.666667,128 L272.666667,128 Z M272.666667,90 L279,90 L279,83.6666667 L272.666667,83.6666667 L272.666667,90 L272.666667,90 Z M272.666667,115.333333 L279,115.333333 L279,109 L272.666667,109 L272.666667,115.333333 L272.666667,115.333333 Z M260,128 L266.333333,128 L266.333333,121.666667 L260,121.666667 L260,128 L260,128 Z M260,77.3333333 L266.333333,77.3333333 L266.333333,71 L260,71 L260,77.3333333 L260,77.3333333 Z" id="Page-1" fill="#25658D" transform="translate(250.500000, 99.500000) rotate(-360.000000) translate(-250.500000, -99.500000) "></path>
        </g>
    </g>
</svg>