<?xml version="1.0" encoding="utf-8"?>
<!-- Generator: Adobe Illustrator 16.0.1, SVG Export Plug-In . SVG Version: 6.00 Build 0)  -->
<!DOCTYPE svg PUBLIC "-//W3C//DTD SVG 1.1//EN" "http://www.w3.org/Graphics/SVG/1.1/DTD/svg11.dtd">
<svg version="1.1" id="Layer_1" xmlns="http://www.w3.org/2000/svg" xmlns:xlink="http://www.w3.org/1999/xlink" x="0px" y="0px"
	 width="56.693px" height="56.693px" viewBox="0 0 56.693 56.693" enable-background="new 0 0 56.693 56.693" xml:space="preserve">
<path d="M53.263,14.565c-1.811,0.805-3.76,1.348-5.805,1.592c2.088-1.25,3.689-3.23,4.444-5.592c-1.953,1.159-4.115,2-6.418,2.454
	c-1.843-1.965-4.47-3.192-7.377-3.192c-5.581,0-10.106,4.526-10.106,10.106c0,0.793,0.089,1.564,0.262,2.303
	c-8.4-0.42-15.848-4.443-20.833-10.559c-0.87,1.492-1.368,3.229-1.368,5.08c0,3.508,1.784,6.6,4.496,8.414
	c-1.656-0.055-3.215-0.508-4.578-1.266c0,0.043,0,0.084,0,0.129c0,4.895,3.483,8.98,8.107,9.91c-0.848,0.23-1.741,0.354-2.663,0.354
	c-0.651,0-1.284-0.062-1.901-0.182c1.286,4.016,5.019,6.938,9.44,7.02c-3.459,2.711-7.816,4.326-12.552,4.326
	c-0.816,0-1.62-0.049-2.411-0.141c4.474,2.867,9.786,4.541,15.493,4.541c18.591,0,28.756-15.4,28.756-28.758
	c0-0.438-0.009-0.873-0.028-1.307C50.194,18.372,51.909,16.593,53.263,14.565z"/>
</svg>
